<?xml version="1.0" standalone="no"?>
<!DOCTYPE svg PUBLIC "-//W3C//DTD SVG 20010904//EN"
 "http://www.w3.org/TR/2001/REC-SVG-20010904/DTD/svg10.dtd">
<svg version="1.0" xmlns="http://www.w3.org/2000/svg"
 width="512.000000pt" height="512.000000pt" viewBox="0 0 512.000000 512.000000"
 preserveAspectRatio="xMidYMid meet">

<g transform="translate(0.000000,512.000000) scale(0.100000,-0.100000)"
fill="#000000" stroke="none">
<path d="M226 5064 c-34 -11 -65 -31 -102 -68 -89 -90 -85 -34 -82 -1017 3
-846 3 -854 24 -894 20 -38 20 -44 8 -115 -38 -220 -42 -532 -10 -755 67 -455
250 -878 534 -1235 449 -563 1184 -928 1879 -934 l132 -1 33 33 c28 28 33 39
33 82 0 43 -5 54 -32 82 -32 32 -33 32 -165 39 -295 17 -496 60 -756 161 -60
23 -101 45 -99 51 2 7 35 34 73 60 170 118 204 177 234 414 29 227 56 310 129
386 20 21 57 50 83 63 52 26 78 65 78 114 0 66 -53 120 -118 120 -49 0 -134
-51 -208 -124 -116 -116 -170 -252 -199 -503 -21 -184 -30 -202 -124 -265 -42
-28 -102 -73 -133 -100 l-57 -49 -58 37 c-49 31 -157 109 -186 134 -5 4 12 36
36 71 111 160 197 342 223 470 27 132 3 273 -66 398 -27 48 -28 56 -15 64 108
60 161 191 130 323 -22 96 -47 146 -100 203 -80 85 -189 115 -370 100 -123
-10 -266 -3 -322 17 -33 12 -49 27 -84 80 -67 104 -139 154 -242 168 -47 7
-48 8 -43 39 3 18 8 64 11 102 4 39 9 78 11 88 5 16 38 17 512 17 l507 0 355
-237 c338 -226 357 -238 402 -238 41 0 53 5 80 33 l33 32 3 204 3 204 137 4
c125 3 142 6 187 30 59 31 94 66 126 128 l24 45 3 854 2 854 88 -6 c159 -12
441 -73 556 -121 l35 -15 -26 -63 c-37 -91 -42 -209 -14 -354 44 -230 42 -247
-44 -434 -87 -190 -105 -325 -56 -434 65 -147 195 -210 383 -186 109 14 117
10 187 -93 63 -93 102 -129 176 -164 53 -25 71 -28 160 -28 99 0 101 1 199 48
54 26 142 77 194 114 92 64 172 103 212 103 20 0 24 -10 53 -136 23 -97 49
-131 109 -141 70 -11 138 46 138 115 0 45 -52 239 -101 376 -86 242 -246 526
-415 735 -148 184 -373 385 -584 524 -222 145 -547 284 -805 341 -281 63 -201
60 -1585 63 -1109 2 -1271 0 -1314 -13z m2202 -236 c18 -18 17 -1641 -1 -1656
-7 -7 -89 -12 -205 -14 l-192 -3 -32 -33 -33 -32 -3 -150 c-2 -83 -5 -150 -8
-150 -2 0 -127 82 -277 183 l-272 182 -549 3 c-380 2 -554 6 -563 13 -18 16
-19 1639 -1 1657 17 17 2119 17 2136 0z m1257 -289 c312 -178 588 -439 785
-739 57 -87 190 -338 190 -358 0 -5 -19 -15 -42 -22 -61 -18 -155 -66 -213
-110 -27 -20 -88 -59 -134 -86 -77 -44 -91 -49 -147 -49 -73 0 -86 9 -149 105
-106 162 -174 191 -419 180 -84 -4 -89 -3 -108 20 -16 20 -19 35 -15 76 5 51
19 88 91 251 71 159 79 272 36 483 -25 122 -25 202 0 258 10 23 23 42 27 42 5
0 49 -23 98 -51z m-3370 -2105 c9 -4 34 -33 56 -65 78 -115 150 -166 270 -190
30 -6 154 -10 276 -10 217 0 223 0 249 -22 30 -26 57 -112 42 -139 -5 -10 -21
-24 -36 -32 -39 -21 -89 -75 -106 -118 -29 -69 -17 -138 43 -235 77 -124 76
-242 -3 -408 -40 -85 -149 -265 -160 -265 -9 0 -158 175 -218 255 -236 315
-403 750 -436 1133 -9 105 -8 108 23 96z"/>
<path d="M1301 4662 c-19 -9 -43 -28 -53 -42 -33 -45 -438 -1121 -438 -1163 0
-31 7 -46 34 -73 30 -30 40 -34 84 -34 70 0 97 29 145 159 l39 101 248 0 249
0 38 -101 c48 -130 75 -159 145 -159 44 0 54 4 84 34 27 27 34 42 34 72 0 36
-391 1093 -428 1158 -20 35 -76 66 -117 66 -16 0 -45 -8 -64 -18z m209 -799
c0 -10 -37 -13 -150 -13 -83 0 -150 4 -150 9 0 7 70 197 140 376 11 29 14 22
86 -165 41 -107 74 -201 74 -207z"/>
<path d="M2632 2661 c-73 -25 -122 -67 -157 -136 l-30 -59 -3 -844 c-3 -935
-4 -908 61 -994 20 -27 55 -54 92 -73 55 -28 67 -30 192 -33 l133 -4 0 -191
c0 -175 2 -195 20 -225 25 -40 80 -66 122 -56 17 3 186 110 377 238 l346 231
541 5 540 5 59 30 c37 19 72 46 92 73 65 86 64 59 61 994 l-3 844 -30 59 c-19
37 -46 72 -73 92 -86 66 -34 63 -1216 63 -1011 -1 -1074 -2 -1124 -19z m1188
-316 c44 -23 60 -63 60 -150 l0 -75 235 0 c260 0 281 -4 310 -60 31 -60 10
-137 -45 -165 -16 -8 -51 -15 -77 -15 l-48 0 -25 -83 c-35 -117 -138 -317
-220 -425 -38 -52 -68 -98 -65 -103 14 -21 182 -124 278 -169 82 -38 110 -56
122 -79 42 -82 -12 -180 -102 -181 -65 0 -250 93 -401 202 l-82 59 -67 -49
c-137 -103 -350 -212 -414 -212 -91 0 -147 97 -104 180 12 23 42 42 130 84
111 53 240 131 264 160 9 11 -3 33 -59 107 -39 52 -85 122 -102 157 -28 57
-30 66 -19 102 6 21 26 51 43 65 28 23 39 26 80 23 26 -3 54 -11 63 -18 8 -7
44 -56 79 -109 36 -53 74 -107 85 -121 l21 -25 29 35 c71 85 177 278 206 378
l6 22 -418 0 c-321 1 -423 4 -441 14 -56 30 -77 107 -47 166 29 56 50 60 310
60 l235 0 0 75 c0 48 6 87 15 105 29 55 105 76 165 45z"/>
</g>
</svg>
